<svg width="846" height="137" viewBox="0 0 846 137" fill="none" xmlns="http://www.w3.org/2000/svg">
<path d="M44.7485 0L21.2817 135H0.539551L24.0063 0H44.7485ZM95.9009 39.9023L48.1763 85.4297L21.1938 109.424L18.7329 90.0879L38.4204 69.5215L69.3579 39.9023H95.9009ZM58.7231 135L36.0474 89.4727L50.813 75.4102L81.4868 135H58.7231Z" fill="white"/>
<path d="M119.29 39.9023L102.767 135H82.1126L98.636 39.9023H119.29ZM101.536 15.293C101.478 11.8945 102.591 9.11133 104.876 6.94336C107.161 4.77539 109.974 3.66211 113.314 3.60352C116.536 3.54492 119.29 4.54102 121.575 6.5918C123.919 8.58398 125.091 11.25 125.091 14.5898C125.15 17.9883 124.007 20.7422 121.663 22.8516C119.378 24.9609 116.595 26.0449 113.314 26.1035C110.091 26.1621 107.337 25.2246 105.052 23.291C102.767 21.2988 101.595 18.6328 101.536 15.293Z" fill="white"/>
<path d="M174.233 114.082L194.008 0H214.838L191.371 135H172.738L174.233 114.082ZM118.686 89.209L118.861 87.3633C119.623 81.5039 121 75.6445 122.992 69.7852C125.043 63.9258 127.797 58.5645 131.254 53.7012C134.77 48.8379 139.047 44.9707 144.086 42.0996C149.184 39.2285 155.16 37.8809 162.016 38.0566C167.992 38.2324 172.973 39.7852 176.957 42.7148C180.941 45.6445 184.047 49.4238 186.274 54.0527C188.559 58.6816 190.111 63.6914 190.932 69.082C191.752 74.4141 192.016 79.6289 191.723 84.7266L191.02 90.7031C190.082 96.0938 188.5 101.543 186.274 107.051C184.047 112.559 181.147 117.598 177.572 122.168C174.057 126.738 169.838 130.371 164.916 133.066C160.053 135.762 154.486 137.021 148.217 136.846C141.947 136.611 136.762 135.029 132.66 132.1C128.559 129.111 125.395 125.273 123.168 120.586C120.942 115.84 119.506 110.742 118.861 105.293C118.217 99.7852 118.158 94.4238 118.686 89.209ZM139.779 87.1875L139.604 89.0332C139.252 92.0801 139.106 95.332 139.164 98.7891C139.223 102.246 139.691 105.557 140.57 108.721C141.508 111.826 143.061 114.404 145.229 116.455C147.455 118.506 150.561 119.619 154.545 119.795C159.174 119.971 163.275 118.916 166.85 116.631C170.483 114.346 173.5 111.357 175.902 107.666C178.305 103.975 180.004 100.049 181 95.8887L183.461 79.8047C183.637 76.875 183.432 73.9746 182.846 71.1035C182.318 68.2324 181.352 65.625 179.945 63.2812C178.539 60.9375 176.664 59.0332 174.32 57.5684C172.035 56.0449 169.252 55.2539 165.971 55.1953C161.635 55.0195 157.885 55.8984 154.721 57.832C151.615 59.7656 149.037 62.3438 146.986 65.5664C144.994 68.7891 143.412 72.3047 142.24 76.1133C141.068 79.9219 140.248 83.6133 139.779 87.1875Z" fill="white"/>
<path d="M206.323 89.0332L206.587 87.0117C207.29 80.4492 208.901 74.209 211.421 68.291C213.94 62.373 217.28 57.1289 221.44 52.5586C225.659 47.9297 230.61 44.3262 236.294 41.748C242.036 39.1699 248.423 37.9688 255.454 38.1445C262.251 38.2617 268.081 39.668 272.944 42.3633C277.866 45.0586 281.85 48.6621 284.897 53.1738C288.003 57.627 290.171 62.7246 291.401 68.4668C292.632 74.1504 292.954 80.0977 292.368 86.3086L292.192 88.3301C291.431 94.8926 289.761 101.104 287.183 106.963C284.663 112.822 281.294 118.037 277.075 122.607C272.915 127.119 267.964 130.664 262.222 133.242C256.538 135.762 250.21 136.934 243.237 136.758C236.499 136.641 230.669 135.264 225.747 132.627C220.884 129.932 216.899 126.357 213.794 121.904C210.747 117.451 208.608 112.412 207.378 106.787C206.147 101.104 205.796 95.1855 206.323 89.0332ZM227.153 87.0117L226.977 89.0332C226.684 92.2559 226.655 95.6543 226.89 99.2285C227.124 102.803 227.827 106.143 228.999 109.248C230.171 112.354 231.987 114.902 234.448 116.895C236.909 118.887 240.19 119.941 244.292 120.059C248.628 120.176 252.407 119.297 255.63 117.422C258.852 115.547 261.548 113.027 263.716 109.863C265.884 106.699 267.612 103.242 268.901 99.4922C270.19 95.6836 271.04 91.9629 271.45 88.3301L271.626 86.3086C271.977 83.1445 272.036 79.7754 271.802 76.2012C271.567 72.5684 270.864 69.1699 269.692 66.0059C268.52 62.7832 266.704 60.1758 264.243 58.1836C261.782 56.1328 258.501 55.0488 254.399 54.9316C250.005 54.8145 246.196 55.7227 242.974 57.6562C239.751 59.5312 237.056 62.0801 234.888 65.3027C232.72 68.5254 230.991 72.041 229.702 75.8496C228.472 79.6582 227.622 83.3789 227.153 87.0117Z" fill="white"/>
<path d="M319.185 112.939L352.847 39.9023H366.734L358.824 63.0176L325.25 135H312.857L319.185 112.939ZM319.273 39.9023L323.052 115.488L320.943 135H308.023L299.586 39.9023H319.273ZM373.765 112.324L402.154 39.9023H422.896L381.5 135H367.789L373.765 112.324ZM368.404 39.9023L376.841 114.258L375.699 135H364.361L355.133 60.9082L355.396 39.9023H368.404Z" fill="white"/>
<path d="M476.179 60.4688L463.259 135H442.517L459.04 39.9023H478.552L476.179 60.4688ZM469.06 83.9355H462.204C462.908 78.1348 464.255 72.4805 466.247 66.9727C468.298 61.4062 471.052 56.4258 474.509 52.0312C477.966 47.6367 482.185 44.1797 487.165 41.6602C492.146 39.1406 497.917 37.9688 504.48 38.1445C509.343 38.2617 513.415 39.2285 516.697 41.0449C520.036 42.8613 522.702 45.3223 524.695 48.4277C526.687 51.5332 528.005 55.0781 528.65 59.0625C529.294 62.9883 529.411 67.1777 529.001 71.6309L518.454 135H497.712L508.083 73.3887C508.493 69.9902 508.376 66.9434 507.732 64.248C507.087 61.4941 505.74 59.2969 503.689 57.6562C501.697 56.0156 498.826 55.1367 495.076 55.0195C490.915 54.9023 487.312 55.6641 484.265 57.3047C481.218 58.9453 478.669 61.1719 476.618 63.9844C474.626 66.7969 472.986 69.9609 471.697 73.4766C470.466 76.9336 469.587 80.4199 469.06 83.9355ZM527.243 78.3105L517.224 80.5078C517.868 75 519.216 69.6973 521.267 64.5996C523.376 59.4434 526.159 54.873 529.617 50.8887C533.132 46.8457 537.292 43.6816 542.097 41.3965C546.902 39.0527 552.351 37.9395 558.445 38.0566C563.601 38.1738 567.937 39.1992 571.452 41.1328C574.968 43.0078 577.722 45.5859 579.714 48.8672C581.765 52.1484 583.113 55.8984 583.757 60.1172C584.402 64.2773 584.46 68.7305 583.933 73.4766L573.65 135H552.908L563.279 73.3008C563.689 69.8438 563.572 66.7676 562.927 64.0723C562.341 61.3184 561.052 59.1504 559.06 57.5684C557.068 55.9863 554.167 55.166 550.359 55.1074C546.96 54.9902 543.913 55.5762 541.218 56.8652C538.581 58.0957 536.296 59.8242 534.363 62.0508C532.488 64.2188 530.964 66.709 529.792 69.5215C528.62 72.334 527.771 75.2637 527.243 78.3105Z" fill="white"/>
<path d="M626.746 136.758C620.242 136.641 614.471 135.381 609.432 132.979C604.451 130.518 600.32 127.207 597.039 123.047C593.758 118.828 591.385 113.994 589.92 108.545C588.455 103.037 587.957 97.1777 588.426 90.9668L588.777 87.3633C589.422 80.9766 590.975 74.8242 593.436 68.9062C595.897 62.9297 599.178 57.627 603.279 52.998C607.44 48.3105 612.332 44.6191 617.957 41.9238C623.582 39.2285 629.852 37.9688 636.766 38.1445C643.387 38.2617 648.983 39.6387 653.553 42.2754C658.123 44.9121 661.756 48.4277 664.451 52.8223C667.147 57.1582 668.934 62.0801 669.813 67.5879C670.75 73.0957 670.897 78.8086 670.252 84.7266L669.022 93.7793H597.654L600.115 78.5742L650.477 78.6621L650.828 76.8164C651.356 73.125 651.151 69.6387 650.213 66.3574C649.334 63.0762 647.693 60.3809 645.291 58.2715C642.889 56.1621 639.666 55.0488 635.623 54.9316C631.229 54.8145 627.449 55.7227 624.285 57.6562C621.18 59.5898 618.602 62.1973 616.551 65.4785C614.5 68.7598 612.889 72.334 611.717 76.2012C610.604 80.0098 609.813 83.7305 609.344 87.3633L608.992 90.8789C608.641 94.3359 608.729 97.7637 609.256 101.162C609.783 104.561 610.809 107.666 612.332 110.479C613.856 113.232 615.965 115.488 618.66 117.246C621.356 118.945 624.695 119.854 628.68 119.971C633.66 120.088 638.172 119.062 642.215 116.895C646.317 114.668 650.037 111.797 653.377 108.281L663.572 119.092C660.877 123.135 657.537 126.475 653.553 129.111C649.627 131.748 645.35 133.711 640.721 135C636.151 136.23 631.492 136.816 626.746 136.758Z" fill="white"/>
<path d="M699.97 61.4355L687.225 135H666.483L683.007 39.9023H702.431L699.97 61.4355ZM692.675 83.9355L686.347 84.0234C687.05 78.3398 688.427 72.7441 690.477 67.2363C692.587 61.6699 695.37 56.6895 698.827 52.2949C702.284 47.8418 706.474 44.3262 711.395 41.748C716.376 39.1699 722.118 37.9688 728.622 38.1445C733.778 38.2617 738.056 39.2871 741.454 41.2207C744.911 43.1543 747.577 45.7617 749.452 49.043C751.386 52.3242 752.645 56.0742 753.231 60.293C753.817 64.5117 753.847 68.9355 753.319 73.5645L743.124 135H722.294L732.665 73.3008C733.016 69.9023 732.899 66.8555 732.313 64.1602C731.727 61.4062 730.438 59.2383 728.446 57.6562C726.454 56.0156 723.583 55.166 719.833 55.1074C715.731 54.9902 712.128 55.752 709.022 57.3926C705.917 59.0332 703.251 61.2891 701.024 64.1602C698.798 66.9727 696.981 70.1074 695.575 73.5645C694.227 77.0215 693.261 80.4785 692.675 83.9355Z" fill="white"/>
<path d="M812.744 111.533L825.136 39.9023H845.879L829.355 135H809.844L812.744 111.533ZM818.545 92.8125L825.4 92.5488C824.697 98.291 823.408 103.857 821.533 109.248C819.658 114.58 817.109 119.355 813.886 123.574C810.664 127.793 806.65 131.104 801.845 133.506C797.041 135.908 791.386 137.021 784.883 136.846C779.668 136.67 775.273 135.645 771.699 133.77C768.183 131.836 765.4 129.229 763.349 125.947C761.299 122.666 759.922 118.916 759.219 114.697C758.574 110.479 758.486 106.025 758.955 101.338L769.238 39.9023H789.892L779.521 101.602C779.345 103.887 779.345 106.084 779.521 108.193C779.697 110.303 780.195 112.207 781.015 113.906C781.836 115.605 783.037 116.982 784.619 118.037C786.26 119.033 788.398 119.59 791.035 119.707C796.66 119.883 801.347 118.799 805.097 116.455C808.906 114.053 811.894 110.771 814.062 106.611C816.289 102.451 817.783 97.8516 818.545 92.8125Z" fill="white"/>
</svg>
